<?xml version="1.0" encoding="utf-8"?>
<!-- Generator: Adobe Illustrator 27.0.0, SVG Export Plug-In . SVG Version: 6.00 Build 0)  -->
<svg version="1.1" id="Layer_1" xmlns="http://www.w3.org/2000/svg" xmlns:xlink="http://www.w3.org/1999/xlink" x="0px" y="0px"
	 viewBox="0 0 595.28 595.28" style="enable-background:new 0 0 595.28 595.28;" xml:space="preserve">
<style type="text/css">
	.st0{fill:#FFFFFF;}
</style>
<g>
	<path class="st0" d="M195.18,431.89l-14.57,36.66h-40.42l14.57-36.66H195.18z M244.06,308.75l-34.31,86.48h-40.42l34.31-86.48
		H244.06z M249.23,377.37h-42.3v-37.6h42.3V377.37z M313.15,132.97l-28.2,70.97h-40.42l28.2-70.97H313.15z M319.26,132.97
		l28.67,70.97h-40.42l-28.67-70.97H319.26z M387.41,377.37h-41.83v-37.6h41.83V377.37z M390.7,308.75l35.25,86.48h-40.42
		l-35.25-86.48H390.7z M440.52,431.89l15.04,36.66h-40.42l-15.04-36.66H440.52z"/>
</g>
</svg>
