<?xml version="1.0" encoding="utf-8"?>
<!-- Generator: Adobe Illustrator 27.0.0, SVG Export Plug-In . SVG Version: 6.00 Build 0)  -->
<svg version="1.1" id="Layer_1" xmlns="http://www.w3.org/2000/svg" xmlns:xlink="http://www.w3.org/1999/xlink" x="0px" y="0px"
	 viewBox="0 0 1700.79 1700.79" style="enable-background:new 0 0 1700.79 1700.79;" xml:space="preserve">
<style type="text/css">
	.st0{fill:#FFFFFF;}
</style>
<g>
	<path class="st0" d="M658.62,1172.38c-49.85,17.01-95.31,50.15-136.37,99.4c-41.07,49.28-78.59,121.42-112.6,216.41H261.86
		c41.05-129.01,90.9-228.71,149.55-299.1c58.63-70.38,122.86-118.47,192.65-144.29c69.79-25.79,150.44-39.29,241.93-40.47v140.77
		C770.92,1146.29,708.47,1155.37,658.62,1172.38z M689.4,398.21c-48.09,29.91-85.61,70.98-112.6,123.16
		c-26.98,52.2-40.47,109.39-40.47,171.55c0,57.49,14.66,110.28,43.97,158.37c29.32,48.09,68.03,85.91,116.14,113.47
		c48.09,27.58,97.94,40.77,149.55,39.58v140.77c-72.72,1.19-143.99-18.45-213.78-58.93s-126.68-95.6-170.65-165.39
		c-43.99-69.79-65.97-145.75-65.97-227.86c0-83.28,20.22-161.85,60.69-235.76s95.6-133.13,165.39-177.7s146.9-66.86,231.36-66.86
		v140.74C792.03,353.34,737.49,368.3,689.4,398.21z M865.36,1145.1h-29.91v-140.77h29.91V1145.1z M1079.99,281.22
		c69.2,44.57,123.16,103.5,161.87,176.81c38.71,73.31,58.08,151.61,58.08,234.89c0,82.11-21.7,157.78-65.1,226.97
		c-43.4,69.22-99.42,124.05-168.05,164.52s-138.71,60.69-210.24,60.69v-140.77c50.42,0,99.1-13.47,146.03-40.45
		c46.92-26.98,84.74-64.51,113.49-112.6c28.72-48.09,43.1-100.89,43.1-158.37c0-63.34-12.62-120.51-37.82-171.55
		c-25.22-51.02-61.58-91.49-109.1-121.4c-47.52-29.91-102.92-45.44-166.26-46.63V212.6C932.79,213.79,1010.79,236.65,1079.99,281.22
		z M1096.72,1044.81c69.79,25.82,134,73.9,192.65,144.29c58.63,70.38,108.48,170.08,149.55,299.1h-147.79
		c-34.02-94.99-71.55-167.13-112.6-216.41c-41.07-49.26-86.23-82.39-135.48-99.4c-49.28-17.01-111.45-26.09-186.5-27.28v-140.77
		C946.88,1005.52,1026.93,1019.01,1096.72,1044.81z"/>
</g>
</svg>
