<?xml version="1.0" encoding="utf-8"?>
<!-- Generator: Adobe Illustrator 27.0.0, SVG Export Plug-In . SVG Version: 6.00 Build 0)  -->
<svg version="1.1" id="Layer_1" xmlns="http://www.w3.org/2000/svg" xmlns:xlink="http://www.w3.org/1999/xlink" x="0px" y="0px"
	 viewBox="0 0 1700.79 1700.79" style="enable-background:new 0 0 1700.79 1700.79;" xml:space="preserve">
<style type="text/css">
	.st0{fill:#FFFFFF;}
</style>
<g>
	<path class="st0" d="M465.95,1341.27l-54.54,137.24H260.1l54.54-137.24H465.95z M648.95,880.3l-128.44,323.74H369.18L497.62,880.3
		H648.95z M668.3,1137.19H509.94V996.42H668.3V1137.19z M907.57,222.27L802.02,487.96H650.69l105.57-265.69H907.57z M930.46,222.27
		l107.31,265.69H886.47L779.13,222.27H930.46z M1185.56,1137.19h-156.59V996.42h156.59V1137.19z M1197.89,880.3l131.96,323.74
		h-151.31L1046.58,880.3H1197.89z M1384.39,1341.27l56.3,137.24h-151.31l-56.3-137.24H1384.39z"/>
</g>
</svg>
