<?xml version="1.0" encoding="utf-8"?>
<!-- Generator: Adobe Illustrator 27.0.0, SVG Export Plug-In . SVG Version: 6.00 Build 0)  -->
<svg version="1.1" xmlns="http://www.w3.org/2000/svg" xmlns:xlink="http://www.w3.org/1999/xlink" x="0px" y="0px"
	 viewBox="0 0 2784.68 514.48" style="enable-background:new 0 0 2784.68 514.48;" xml:space="preserve">
<style type="text/css">
	.st0{fill:#FFFFFF;}
	.st1{fill:#231F20;}
	.st2{fill:none;stroke:#FFFFFF;stroke-width:2.4;stroke-miterlimit:10;}
</style>
<g id="Layer_1">
	<g>
		<path class="st0" d="M282.06,269.86c5.13-1.6,10.07-3.5,14.81-5.73c16.84-7.91,30-18.92,39.5-33.03
			c9.5-14.1,14.25-30.22,14.25-48.35c0-31.37-9.71-54.54-29.14-69.51c-19.43-14.96-45.84-22.45-79.22-22.45h-82.89H142.1h-17.27
			v88.5v158.01v61.73h34.54v-61.73v-61.3h79.44c1.86,0,3.7-0.04,5.52-0.1l46.71,72.19l32.81,50.94h41.44l-44.9-69.94L282.06,269.86z
			 M159.36,241.47v-62.17v-53.96h82.89c26.19,0,45.04,4.18,56.55,12.52c11.51,8.35,17.27,23.31,17.27,44.9
			c0,18.71-6.55,33.17-19.64,43.39c-13.1,10.22-32.31,15.33-57.63,15.33H159.36z"/>
		<path class="st0" d="M493.94,298.03h0.43c13.52,0,25.9-0.57,37.13-1.73c11.22-1.15,21.15-4.03,29.79-8.63
			c18.71-10.36,30.44-25.4,35.18-45.11c4.75-19.71,3.95-39.93-2.37-60.66c-27.35,0-47.85,0-61.52,0c-13.67,0-27.35,0-41.01,0
			c-13.67,0-34.18,0-61.52,0c-9.79,8.35-15.4,22.17-16.84,41.44c-1.44,19.29,4.24,36.55,17.05,51.81c2.9,3.45,6.22,6.5,9.92,9.17
			c-1.66,1.54-3.24,3.16-4.74,4.86c-12.81,14.54-20.8,31.73-23.96,51.59c-3.17,19.86-2.88,39.29,0.86,58.28c30.79,0,53.89,0,69.29,0
			c15.39,0,30.79,0,46.19,0c15.39,0,38.49,0,69.29,0c0-21.3,0-42.59,0-63.89h-34.54c0,6.33,0,11.16,0,14.46c0,3.31,0,8.28,0,14.89
			c-26.19,0-45.76,0-58.71,0c-12.95,0-32.96,0-60.01,0c-0.29-18.71,3.45-34.03,11.22-45.98
			C462.86,306.59,475.81,299.75,493.94,298.03z M448.18,216.43c19.57,0,34.17,0,43.82,0c9.64,0,19.35,0,29.14,0
			c9.78,0,24.32,0,43.6,0c1.73,19.29-4.9,32.96-19.86,41.01c-5.18,2.59-11.66,4.25-19.43,4.96c-7.77,0.72-17.56,1.08-29.36,1.08
			h-3.89c-13.81,0-24.39-2.44-31.73-7.34c-7.34-4.89-11.87-10.93-13.6-18.13C445.16,230.83,445.59,223.63,448.18,216.43z"/>
		<path class="st0" d="M838.23,354.58c-12.81,10.36-31.45,15.54-55.91,15.54c-20.44,0-38.35-4.89-53.75-14.68
			c-15.4-9.78-27.35-24.18-35.83-43.17c-8.49-19-12.74-41.59-12.74-67.78c0-41.15,9.35-72.24,28.06-93.25
			c18.71-21.01,43.6-31.52,74.69-31.52c25.04,0,43.74,5.04,56.12,15.11c12.37,10.08,20.43,25.33,24.18,45.76h35.4
			c-4.32-28.78-16.19-51.87-35.62-69.29c-19.43-17.41-46.13-26.12-80.08-26.12c-25.62,0-48.86,6.26-69.72,18.78
			c-20.87,12.52-37.34,30.8-49.43,54.83c-12.09,24.03-18.13,52.6-18.13,85.69c0,31.66,5.9,59.58,17.7,83.75
			c11.8,24.18,28.06,42.96,48.78,56.34s44.18,20.07,70.37,20.07c33.96,0,60.72-8.92,80.3-26.77c19.57-17.84,31.8-40.72,36.7-68.64
			h-35.4C859.6,329.11,851.03,344.22,838.23,354.58z"/>
		<path class="st0" d="M1096.82,190.31c-15.69-9.35-33.17-14.03-52.45-14.03c-19.29,0-36.77,4.68-52.45,14.03
			c-15.69,9.36-28.06,22.74-37.13,40.15c-9.07,17.42-13.6,37.49-13.6,60.22c0,22.74,4.53,42.74,13.6,60.01s21.44,30.58,37.13,39.93
			c15.68,9.35,33.17,14.03,52.45,14.03c19.28,0,36.76-4.68,52.45-14.03c15.68-9.35,28.06-22.67,37.13-39.93s13.6-37.27,13.6-60.01
			c0-22.73-4.53-42.81-13.6-60.22C1124.88,213.05,1112.5,199.67,1096.82,190.31z M1094.66,349.83c-12.24,13.53-29,20.29-50.29,20.29
			c-21.3,0-38.06-6.76-50.29-20.29c-12.24-13.52-18.35-33.24-18.35-59.14c0-17.27,2.81-31.87,8.42-43.82
			c5.61-11.94,13.6-20.94,23.96-26.98c10.36-6.04,22.45-9.07,36.26-9.07c21.3,0,38.06,6.84,50.29,20.51
			c12.23,13.67,18.35,33.46,18.35,59.36S1106.89,336.31,1094.66,349.83z"/>
		<path class="st0" d="M1301.23,205.03c-0.43-0.38-0.86-0.75-1.29-1.12c-10.65-8.92-22.02-16.12-34.11-21.59l-5.83,11.66
			l-5.83-11.66c-12.38,5.47-23.6,12.52-33.67,21.15c-10.08,8.63-17.99,20.01-23.74,34.11c-5.76,14.1-8.63,31.51-8.63,52.24
			c0,20.72,2.73,38.21,8.2,52.45c5.46,14.25,13.09,25.83,22.88,34.75c9.78,8.92,21.01,16.12,33.67,21.59l5.83-11.66l5.83,11.66
			c11.51-5.46,22.73-12.88,33.67-22.23c1.03-0.88,2.03-1.78,3.02-2.7v25.37h34.54V81.31h-34.54V205.03z M1294.32,329.97
			c-4.61,10.65-10.65,19.58-18.13,26.77c-5.83,5.6-11.83,10.58-18,14.96c-10.47-6.55-18.72-15.06-24.74-25.54
			c-7.2-12.52-10.79-31.3-10.79-56.34c0-24.18,3.89-42.45,11.66-54.83c6.55-10.43,15.06-19.02,25.5-25.77
			c6.44,4.3,12.4,9.08,17.89,14.33c7.05,6.77,12.74,15.47,17.05,26.12c4.32,10.65,6.48,24.18,6.48,40.58
			C1301.23,306.09,1298.92,319.33,1294.32,329.97z"/>
		<path class="st0" d="M1554.21,298.03h16.84h17.7c0-19-1.73-35.97-5.18-50.94c-5.76-23.31-15.97-40.86-30.65-52.67
			c-14.68-11.8-33.67-17.7-56.99-17.7c-19,0-36.2,4.18-51.59,12.52c-15.4,8.35-27.78,21.15-37.13,38.42
			c-9.36,17.27-14.03,38.57-14.03,63.89c0,23.31,4.6,43.46,13.81,60.44c9.21,16.99,21.73,29.94,37.56,38.85
			c15.83,8.92,33.53,13.38,53.1,13.38c15.82,0,30-2.66,42.52-7.99s22.88-13.17,31.08-23.53s13.74-22.88,16.62-37.56h-35.4
			c-3.45,12.09-9.5,20.87-18.13,26.33c-8.63,5.47-20.87,8.2-36.7,8.2c-21.88,0-39-6.48-51.37-19.43
			c-11.33-11.86-17.46-29.28-18.41-52.24h66.33H1554.21z M1430.12,263.49c2.77-14.36,7.93-25.52,15.51-33.46
			c11.94-12.52,28.71-18.78,50.29-18.78c16.69,0,29.42,3.67,38.21,11.01c8.78,7.34,14.6,19.79,17.48,37.34
			c0.2,1.26,0.4,2.56,0.58,3.89h-57.99H1430.12z"/>
		<path class="st0" d="M1944.25,292.41c9.56-13.41,14.38-28.96,14.46-46.62h0.44c-3.17-27.63-15.11-48.57-35.83-62.81
			c-17.18-11.81-38.14-18.71-62.84-20.73c2.2-11.8,7.89-21.16,17.08-28.05c12.09-9.07,30.07-13.6,53.96-13.6V86.05
			c-20.44,0-38.79,3.6-55.04,10.79c-16.26,7.2-28.92,17.42-37.99,30.65c-3.11,4.54-5.67,9.36-7.72,14.44
			c-0.85-0.81-1.73-1.6-2.65-2.35c-14.25-11.8-34.61-20.29-61.09-25.47l-30.65-6.48v35.4l23.74,4.75
			c14.68,2.88,25.75,5.98,33.24,9.28c7.48,3.31,12.95,7.92,16.41,13.81c3.45,5.9,5.18,14.32,5.18,25.25h29.79
			c24.18,0,42.81,3.96,55.91,11.87c12.98,7.85,20.94,20.3,23.88,37.34h-0.35c0,17.56-6.77,31.08-20.29,40.58
			c-13.46,9.45-32.6,14.19-57.44,14.24l-29.33-5.61c-13.24-2.59-23.46-5.4-30.65-8.42c-7.2-3.02-12.52-7.55-15.97-13.6
			c-3.45-6.04-5.18-14.53-5.18-25.47h-34.54c0,25.62,7.12,44.4,21.37,56.34c14.25,11.95,33.6,20.22,58.07,24.82l24.84,5.03
			c3.39,11.11,8.56,20.95,15.53,29.51c11.94,14.68,27.2,25.4,45.76,32.16c18.56,6.76,38.78,9.85,60.66,9.28v-34.54
			c-26.77,0.86-48.21-3.74-64.33-13.81c-9.18-5.73-16.1-13.43-20.8-23.08c11.5-1.78,22.25-4.81,32.24-9.09
			C1921.23,316.37,1934.61,305.95,1944.25,292.41z"/>
		<path class="st0" d="M2189.25,328.68l-0.07-12.87c0.05-1.17,0.07-2.35,0.07-3.54h-0.09l-0.34-58.28
			c0-25.32-7.49-44.53-22.45-57.63c-14.97-13.09-35.69-19.64-62.17-19.64c-17.27,0-31.95,2.81-44.03,8.42
			c-12.09,5.61-21.44,13.53-28.06,23.74c-6.62,10.22-10.79,22.52-12.52,36.91h34.54c1.44-8.63,3.81-15.39,7.12-20.29
			c3.31-4.89,8.34-8.49,15.11-10.79c6.76-2.3,16.04-3.45,27.85-3.45c18.71,0,31.73,3.1,39.07,9.28
			c7.34,6.19,11.01,17.34,11.01,33.46l0.06,10.36l-67.84,7.77c-22.17,2.88-40.44,9.71-54.83,20.51
			c-14.4,10.79-21.59,26.98-21.59,48.57c0,21.88,7.12,37.77,21.37,47.7c14.25,9.93,31.73,14.89,52.45,14.89
			c15.25,0,31.08-3.74,47.49-11.22c9.16-4.18,17.49-9.37,24.99-15.57c0.79,6.97,1.95,14.32,3.5,22.04h35.4
			c-3.74-14.96-5.61-29.21-5.61-42.74L2189.25,328.68z M2117.15,362.14c-10.94,4.75-22.02,7.12-33.24,7.12
			c-14.4,0-24.54-1.87-30.44-5.61c-5.9-3.74-8.85-11.22-8.85-22.45c0-7.77,1.65-13.96,4.96-18.56c3.31-4.6,8.27-8.13,14.89-10.58
			c6.62-2.44,15.39-4.24,26.33-5.4l63.72-7.3l0.09,15.63c-0.53,10.12-4.02,19.14-10.5,27.07
			C2137.08,350.69,2128.09,357.39,2117.15,362.14z"/>
		<path class="st0" d="M2366.24,176.71c-14.1,0-28.28,3.74-42.52,11.22c-8.79,4.62-16.92,10.69-24.39,18.21v-24.25h-34.54v109.22
			v107.93h34.54V291.12v-9.07c3.74-23.89,11.94-41.66,24.61-53.32c12.66-11.66,26.77-17.48,42.31-17.48
			c16.12,0,27.85,4.03,35.18,12.09c7.34,8.06,11.01,21.3,11.01,39.72v135.99h34.54V263.06c0-27.05-7.34-48.2-22.02-63.46
			C2410.28,184.34,2390.7,176.71,2366.24,176.71z"/>
		<path class="st0" d="M2667.57,296.73c-10.65-9.21-25.62-15.68-44.9-19.43l-23.74-4.75l-17.7-3.45
			c-13.24-2.59-22.38-5.68-27.41-9.28c-5.04-3.6-7.56-8.99-7.56-16.19c0-7.48,1.58-13.6,4.75-18.35c3.16-4.75,8.2-8.27,15.11-10.58
			c6.91-2.3,15.97-3.45,27.2-3.45c16.98,0,29.28,2.16,36.91,6.48c7.62,4.32,12.16,11.51,13.6,21.59h34.54
			c-1.44-20.43-9.86-35.97-25.26-46.62c-15.4-10.64-35.33-15.97-59.79-15.97c-24.47,0-44.18,5.98-59.15,17.92
			c-14.97,11.95-22.45,28.28-22.45,49c0,3.74,0.14,6.33,0.43,7.77c2.01,14.4,8.63,25.69,19.86,33.89
			c11.22,8.2,25.32,14.03,42.31,17.48l24.61,5.18l16.84,3.02c9.78,2.02,16.9,3.96,21.37,5.83c4.46,1.88,7.55,4.25,9.28,7.12
			c1.73,2.88,2.59,7.06,2.59,12.52c0,10.65-4.32,18.85-12.95,24.61c-8.63,5.76-21.3,8.63-37.99,8.63c-18.42,0-32.59-2.73-42.52-8.2
			c-9.93-5.46-15.62-14.39-17.05-26.77h-34.54c1.44,23.6,11.15,41.09,29.14,52.45c17.98,11.37,39.64,17.05,64.97,17.05
			c15.83,0,30.29-2.81,43.39-8.42c13.09-5.61,23.38-13.6,30.87-23.96c7.48-10.36,11.22-22.16,11.22-35.4
			C2683.55,319.18,2678.22,305.95,2667.57,296.73z"/>
	</g>
</g>
<g id="Layer_2">
</g>
</svg>
